PathFileType  4	(X/Y/Z) C:\Users\antoi\Documents\MyRepositories\mobilecap\ResultsAnalysis
DataRate	CameraRate	NumFrames	NumMarkers	Units	OrigDataRate	OrigDataStartFrame	OrigNumFrames
100.0	100.0	4	51	mm	100.0	72	284
Frame#	Time	r_knee			r_shank_antsup			r_ankle			r_calc			r_5meta			r_toe			L_knee			L_shank_antsup			L_ankle			L_calc			L_5meta			L_toe			r_sh2			r_sh3			r_sh4			L_sh2			L_sh3			r_thigh1			r_thigh2			r_thigh3			r_thigh4			r_thigh5			L_thigh1			L_thigh2			L_thigh3			L_thigh4			r.ASIS			r.PSIS			L.ASIS			L.PSIS			C7			R_Shoulder			L_Shoulder			R_Sternum			L_Sternum			R_humerus			R_elbow_med			R_elbow_lat			R_forearm			R_wrist_radius			R_wrist_ulna			L_humerus			L_elbow_med			L_elbow_lat			L_forearm			L_wrist_radius			L_wrist_ulna			R_HJC			L_HJC			R_HJC_reg			L_HJC_reg			
		X1	Y1	Z1	X2	Y2	Z2	X3	Y3	Z3	X4	Y4	Z4	X5	Y5	Z5	X6	Y6	Z6	X7	Y7	Z7	X8	Y8	Z8	X9	Y9	Z9	X10	Y10	Z10	X11	Y11	Z11	X12	Y12	Z12	X13	Y13	Z13	X14	Y14	Z14	X15	Y15	Z15	X16	Y16	Z16	X17	Y17	Z17	X18	Y18	Z18	X19	Y19	Z19	X20	Y20	Z20	X21	Y21	Z21	X22	Y22	Z22	X23	Y23	Z23	X24	Y24	Z24	X25	Y25	Z25	X26	Y26	Z26	X27	Y27	Z27	X28	Y28	Z28	X29	Y29	Z29	X30	Y30	Z30	X31	Y31	Z31	X32	Y32	Z32	X33	Y33	Z33	X34	Y34	Z34	X35	Y35	Z35	X36	Y36	Z36	X37	Y37	Z37	X38	Y38	Z38	X39	Y39	Z39	X40	Y40	Z40	X41	Y41	Z41	X42	Y42	Z42	X43	Y43	Z43	X44	Y44	Z44	X45	Y45	Z45	X46	Y46	Z46	X47	Y47	Z47	X48	Y48	Z48	X49	Y49	Z49	X50	Y50	Z50	X51	Y51	Z51	

72	0.71000000	-1080.63134	879.96300	-414.20054	-1096.10723	730.59418	-419.90952	-1296.41794	421.21915	-423.78838	-1358.36226	394.96008	-486.67163	-1171.44988	351.66338	-388.20979	-1130.81637	375.14170	-439.44576	-1129.30326	882.55709	-768.36581	-1131.09094	677.31230	-740.18971	-1304.77407	420.42666	-731.29575	-1365.23821	382.98971	-663.96075	-1173.44883	346.22760	-776.52288	-1130.15134	378.67234	-720.21426	-1145.16485	627.53852	-427.79799	-1156.88268	753.63127	-383.21976	-1207.75569	655.28163	-377.78505	-1193.60023	707.84382	-794.62715	-1243.24812	600.75653	-773.99656	-1135.66881	1168.35352	-388.29298	-1085.94047	1067.55165	-392.17297	-1132.88289	1018.08156	-385.00406	-1237.33919	1121.80147	-409.28212	-1184.23058	1012.88673	-406.04994	-1140.01331	1181.44588	-778.63560	-1106.09363	1051.02130	-774.35873	-1249.95692	1155.26031	-784.18526	-1210.48991	1023.02912	-790.12270	-1125.79308	1380.95064	-463.00498	-1283.04318	1492.64919	-532.37586	-1159.34280	1385.72074	-731.11554	-1291.51867	1498.97184	-625.27094	-966.56641	1873.58224	-611.16308	-903.99842	1804.80300	-446.78173	-939.34778	1825.75410	-784.41140	-883.75988	1731.45124	-592.72251	-888.31311	1733.70961	-644.18306	-1079.10634	1625.75367	-332.55879	-1230.34865	1590.49382	-349.38174	-1192.83327	1610.74242	-277.25474	-1148.35339	1396.74434	-268.80314	-1132.90254	1308.16464	-276.47633	-1155.99831	1308.70989	-246.25886	-1118.20690	1609.95350	-882.78811	-1242.84871	1606.53378	-849.45903	-1215.63026	1593.40241	-925.91526	-1194.11165	1384.00812	-926.66869	-1187.67941	1313.23752	-913.55864	-1207.14727	1313.02090	-937.07251	-1241.50897	1332.08811	-488.35094	-1267.33536	1341.53173	-683.90332	-1230.87687	1332.85251	-495.33545	-1247.04527	1344.91379	-672.55147	
73	0.72000000	-1074.12035	877.50573	-413.63445	-1090.77019	728.44250	-419.22836	-1295.69667	422.08416	-423.51764	-1357.74003	396.30630	-486.50792	-1171.39078	351.32307	-388.08300	-1130.53113	374.73491	-439.31334	-1122.99156	879.74750	-768.47049	-1126.69723	674.74857	-739.95506	-1304.01457	420.49124	-731.06500	-1365.05223	383.06011	-663.74895	-1173.35289	346.02423	-776.49292	-1129.79456	378.13762	-720.16372	-1141.43739	626.60799	-426.58063	-1151.52657	752.31075	-382.85890	-1203.57121	654.05258	-377.89834	-1188.56442	706.11026	-794.70273	-1239.74455	599.66458	-774.07644	-1132.16142	1165.00624	-388.33454	-1080.70571	1065.39554	-391.77831	-1127.50518	1014.55488	-384.95099	-1233.48341	1117.09989	-409.21473	-1178.91878	1009.00112	-405.69358	-1137.33505	1178.62490	-778.67843	-1101.61845	1048.48128	-774.82851	-1247.02730	1150.77774	-784.89598	-1205.56717	1019.12988	-790.36793	-1125.34815	1375.05946	-463.16508	-1282.07520	1487.51622	-532.33390	-1159.11126	1380.13835	-731.33515	-1290.63852	1494.01417	-625.30093	-962.97213	1866.10462	-611.10161	-900.62530	1796.53331	-447.26277	-936.37211	1818.11709	-784.33330	-880.73743	1723.37178	-592.75856	-885.32241	1725.63808	-644.29308	-1072.37100	1613.68655	-333.57104	-1223.45513	1575.94849	-348.99494	-1185.33073	1596.10558	-277.35108	-1135.67089	1383.14265	-272.19736	-1118.21641	1295.20138	-281.27244	-1140.87919	1294.66233	-250.89213	-1110.38873	1597.60606	-881.99540	-1235.31105	1590.91681	-849.05397	-1207.11390	1577.95476	-925.18000	-1177.97968	1369.08471	-923.38596	-1169.53666	1299.17906	-909.30045	-1189.04659	1297.87940	-932.74117	-1241.31800	1326.76782	-488.48466	-1267.27117	1336.45894	-684.00819	-1230.66030	1327.35254	-495.46264	-1246.98638	1339.74100	-672.70280	
74	0.73000000	-1067.29361	874.93097	-413.13835	-1085.24715	726.29539	-418.50067	-1294.88951	423.18526	-423.18912	-1357.15619	397.82181	-486.27118	-1171.28565	351.10766	-387.97118	-1130.17032	374.38349	-439.16202	-1116.45926	876.72497	-768.24947	-1122.20171	671.95035	-739.34389	-1303.29816	420.43619	-730.74913	-1364.84958	383.18012	-663.61034	-1173.27084	345.79571	-776.54470	-1129.49726	377.61957	-720.15421	-1137.35290	626.23862	-425.25873	-1145.70496	750.96325	-382.54724	-1199.12041	653.03661	-377.72030	-1183.38588	704.19965	-794.51797	-1236.16738	598.44294	-774.10364	-1128.63910	1161.34597	-388.44011	-1076.36298	1062.54103	-391.15486	-1122.20060	1011.16371	-384.54043	-1229.36020	1111.55356	-409.86257	-1173.63457	1004.96310	-405.25033	-1134.47178	1175.35303	-778.82146	-1096.70167	1045.62883	-774.98434	-1243.76857	1146.23653	-786.36827	-1200.33318	1015.00546	-790.45541	-1124.63822	1369.09444	-463.39254	-1281.11376	1482.13008	-532.54964	-1158.62214	1374.60676	-731.63521	-1289.73182	1488.82155	-625.39128	-959.66910	1858.73087	-611.03360	-897.55147	1788.42753	-447.60533	-933.57717	1810.47465	-784.45634	-877.96496	1715.48470	-592.92914	-882.50889	1717.58737	-644.33029	-1065.36298	1601.47432	-334.64114	-1216.00405	1560.67131	-348.65838	-1177.40897	1581.10669	-277.36356	-1121.99199	1369.38485	-275.67415	-1102.21465	1282.26048	-286.16545	-1124.55029	1280.54877	-255.80027	-1102.06805	1584.98448	-880.86151	-1227.16306	1574.83353	-848.83791	-1197.90780	1562.02916	-924.66323	-1160.91264	1354.17039	-919.87669	-1149.89636	1284.99879	-904.04816	-1169.60049	1282.56685	-927.92425	-1240.83796	1321.23129	-488.78978	-1266.86508	1331.20712	-684.28896	-1230.13308	1321.63450	-495.70714	-1246.58868	1334.41155	-672.97996	
75	0.74000000	-1060.07868	872.31941	-412.71300	-1079.55517	724.06465	-418.25783	-1293.85823	424.51694	-422.98795	-1356.47270	399.65879	-485.97088	-1171.10971	350.89575	-387.87109	-1129.75218	373.99967	-438.94074	-1109.98039	873.48940	-768.04393	-1117.55636	668.99351	-738.52946	-1302.61408	420.33314	-730.37744	-1364.61480	383.32297	-663.47243	-1173.20107	345.49339	-776.48265	-1129.30374	377.00497	-720.09204	-1132.84503	625.19238	-424.44152	-1139.32950	749.66311	-382.09080	-1194.63291	652.89751	-377.19995	-1178.01567	702.01038	-794.14909	-1232.43438	597.07486	-773.86050	-1125.44922	1157.75104	-388.44104	-1072.02617	1059.54401	-390.52501	-1116.93546	1007.68920	-384.17830	-1225.11928	1105.45112	-410.76135	-1168.30698	1000.77454	-404.74939	-1131.00546	1171.85687	-778.77865	-1091.45606	1042.63234	-774.93354	-1240.16764	1141.35991	-787.30557	-1194.80318	1010.66760	-790.29138	-1123.79219	1363.24247	-463.58451	-1280.16234	1476.53386	-532.92978	-1157.58165	1369.05745	-731.82120	-1288.68788	1483.37193	-625.62218	-956.73904	1851.54878	-611.03488	-894.73902	1780.55671	-447.80417	-931.07314	1802.97852	-784.59286	-875.43625	1707.85529	-593.26284	-879.89290	1709.72017	-644.39706	-1058.03787	1589.15662	-335.72385	-1207.73133	1544.76448	-348.56698	-1168.95666	1565.66534	-277.17743	-1107.29788	1355.73184	-279.34656	-1084.90656	1269.57495	-291.16030	-1106.93801	1266.56678	-260.83611	-1093.31978	1572.06943	-879.41080	-1218.46272	1558.34176	-848.84378	-1187.92459	1545.86547	-924.53926	-1143.00357	1339.46380	-916.10402	-1129.06984	1271.21943	-898.75601	-1148.72351	1267.43420	-922.82284	-1240.08222	1315.56658	-489.15391	-1265.90732	1325.73429	-684.66991	-1229.31607	1315.84938	-496.05501	-1245.61855	1328.92533	-673.30392	
